<?xml version="1.0" encoding="utf-8"?>
<!-- Generator: Adobe Illustrator 22.0.1, SVG Export Plug-In . SVG Version: 6.00 Build 0)  -->
<svg version="1.1" id="圖層_1" xmlns="http://www.w3.org/2000/svg" xmlns:xlink="http://www.w3.org/1999/xlink" x="0px" y="0px"
	 viewBox="0 0 157 42" style="enable-background:new 0 0 157 42;" xml:space="preserve" width="200" height="55">
<style type="text/css">
	.st0{fill:#84329B;}
	.st1{fill:#FFC600;}
	.st2{fill:#00A3E0;}
</style>
<g>
	<path class="st0" d="M101.5,25H91.3v-1.3h2.3c0.8,0,1.3-0.4,1.3-1.3v-2.9l0,0v-5.1c0-0.8-0.4-1.3-1.3-1.3h-5.8v-0.5
		c0-0.2,0.1-0.3,0.3-0.3h0.6l0,0h4.6c0.2,0,0.3-0.1,0.3-0.3v-1.8c0-0.2-0.1-0.3-0.3-0.3H86c-0.8,0-1.3,0.4-1.3,1.3v5.5l0,0v5.5
		c0,0.8,0.4,1.3,1.3,1.3h2.3v1.3H78c-0.2,0-0.3,0.1-0.3,0.3v1.7c0,0.2,0.1,0.3,0.3,0.3h4.4l-3.3,5.6c-0.1,0.2,0,0.3,0.1,0.3h2.7
		c0.2,0,0.4-0.1,0.5-0.3l3.3-5.6h2.6v6.2c0,0.2,0.1,0.3,0.3,0.3H91c0.2,0,0.3-0.1,0.3-0.3v-6.2h2.6l3.3,5.6c0.1,0.2,0.3,0.3,0.5,0.3
		h2.7c0.2,0,0.2-0.1,0.1-0.3l-3.3-5.6h4.4c0.2,0,0.3-0.1,0.3-0.3v-1.7C101.7,25.1,101.6,25,101.5,25z M87.7,15.8
		c0-0.1,0.1-0.2,0.3-0.2h3.6c0.1,0,0.3,0.1,0.3,0.2v1.1l0,0v0.4h-4.1v-0.4l0,0v-1.1H87.7z M87.9,21.3c-0.1,0-0.3-0.1-0.3-0.2v-1.4
		h4.1v1.4c0,0.1-0.1,0.2-0.3,0.2H87.9z M78,23.7L78,23.7h4.2c0.8,0,1.2-0.4,1.2-1.2v-8.1c0-0.8-0.4-1.2-1.2-1.2H78l0,0
		c-0.2,0-0.3,0.1-0.3,0.3v1.7c0,0.1,0.1,0.3,0.3,0.3l0,0h2.3c0,0,0.2,0.1,0.2,0.2v5.6c0,0.1-0.1,0.2-0.2,0.2H78l0,0
		c-0.2,0-0.3,0.1-0.3,0.3v1.7C77.8,23.5,77.9,23.7,78,23.7z M99.2,15.4h2.3l0,0c0.2,0,0.3-0.1,0.3-0.3v-1.7c0-0.1-0.1-0.3-0.3-0.3
		l0,0h-4.2c-0.8,0-1.2,0.4-1.2,1.2v8.1c0,0.8,0.4,1.2,1.2,1.2h4.2l0,0c0.2,0,0.3-0.1,0.3-0.3v-1.7c0-0.1-0.1-0.3-0.3-0.3l0,0h-2.2
		c-0.1,0-0.2-0.1-0.2-0.2L99.2,15.4C99,15.5,99.1,15.4,99.2,15.4z"/>
	<path class="st0" d="M114.6,13.2h-9.4c-0.2,0-0.3,0.1-0.3,0.3v1.8c0,0.2,0.1,0.3,0.3,0.3h1.2L105,32.4c0,0.2,0.1,0.3,0.3,0.3h2.6
		c0.2,0,0.3-0.1,0.3-0.3l1.1-12.8h2.2c0.1,0,0.1,0,0.2,0v11.3c0,0.2-0.2,0.3-0.3,0.3h-0.9c-0.2,0-0.3,0.1-0.3,0.3v1.9
		c0,0.2,0.1,0.3,0.3,0.3h2.6c1.1,0,1.7-0.6,1.7-1.7V18.3c0-0.8-0.5-1.2-1.2-1.2l0,0h-4l0.1-1.7h5.1c0.2,0,0.3-0.1,0.3-0.3v-1.8
		C114.9,13.3,114.8,13.2,114.6,13.2z M106.9,12.4h6c0.2,0,0.3-0.1,0.3-0.3v-1.8c0-0.2-0.1-0.3-0.3-0.3h-6c-0.2,0-0.3,0.1-0.3,0.3
		v1.8C106.6,12.3,106.7,12.4,106.9,12.4z M128.4,15.2v-1.8c0-0.2-0.1-0.3-0.3-0.3h-7.7l1.7-2.9c0.1-0.2,0-0.3-0.1-0.3h-2.6
		c-0.2,0-0.4,0.1-0.5,0.3l-2.8,5c-0.1,0.2,0,0.3,0.1,0.3h11.9C128.3,15.5,128.4,15.4,128.4,15.2z M128.7,32.9l-5.3-9.1h4.4
		c0.2,0,0.3-0.1,0.3-0.3v-1.8c0-0.2-0.1-0.3-0.3-0.3H122l0,0h-2.6v-1.9h8.7c0.2,0,0.3-0.1,0.3-0.3v-1.8c0-0.2-0.1-0.3-0.3-0.3h-10.5
		l0,0c-0.8,0-1.2,0.5-1.2,1.3V32c0,1.1,0.6,1.7,1.7,1.7h2.6c0.2,0,0.3-0.1,0.3-0.3v-1.9c0-0.2-0.1-0.3-0.3-0.3h-0.9
		c-0.2,0-0.3-0.1-0.3-0.3v-8.1l5.9,10.1c0.1,0.2,0.3,0.3,0.5,0.3h2.8C128.8,33.1,128.8,33,128.7,32.9z"/>
	<path class="st0" d="M137.3,15.5h1.4l-1.1,13.1c0,0.2,0.1,0.3,0.3,0.3h2.2c0.2,0,0.3-0.1,0.3-0.3l0.8-9h1.8v7.5
		c0,0.2-0.2,0.3-0.3,0.3h-0.5c-0.2,0-0.3,0.1-0.3,0.3v1.9c0,0.2,0.2,0.3,0.3,0.3h1.9c1.1,0,1.7-0.6,1.7-1.7v-9.8
		c0-0.8-0.4-1.3-1.2-1.3l0,0h-3.2l0.1-1.7h4.1c0.2,0,0.3-0.1,0.3-0.3v-1.8c0-0.2-0.1-0.3-0.3-0.3h-8.4c-0.2,0-0.3,0.1-0.3,0.3v1.8
		C137,15.4,137.2,15.5,137.3,15.5z M131.7,15.5h3.9c0.2,0,0.3-0.1,0.3-0.3v-1.8c0-0.2-0.1-0.3-0.3-0.3h-3.9c-0.2,0-0.3,0.1-0.3,0.3
		v1.8C131.4,15.4,131.6,15.5,131.7,15.5z M138.7,12.4h4.8c0.2,0,0.3-0.1,0.3-0.3v-1.8c0-0.2-0.1-0.3-0.3-0.3h-4.8
		c-0.2,0-0.3,0.1-0.3,0.3v1.8C138.5,12.3,138.6,12.4,138.7,12.4z M154.7,13.2h-3.5l1.7-2.9c0.1-0.2,0-0.3-0.1-0.3h-2.6
		c-0.2,0-0.4,0.1-0.5,0.3l-2.8,5c-0.1,0.2,0,0.3,0.1,0.3h7.7c0.2,0,0.3-0.1,0.3-0.3v-1.8C155,13.3,154.9,13.2,154.7,13.2z
		 M154.7,22.9h-2.3v-0.6c0.1,0,0.1-0.1,0.2-0.2c1.1-0.9,1.4-2.1,1.5-2.8c0,0,0,0,0-0.1l0,0c0-0.2,0-0.3,0-0.4l0,0v-1.3v-0.1
		c0-0.2-0.1-0.3-0.3-0.3H148c-0.2,0-0.3,0.1-0.3,0.3v1.8c0,0.2,0.1,0.3,0.3,0.3h3.7c-0.1,1.1-0.5,1.3-0.8,1.4h-0.2c0,0,0,0-0.1,0
		h-0.7c-0.2,0-0.3,0.1-0.3,0.3v1.7h-2.4c-0.2,0-0.3,0.1-0.3,0.3v1.7c0,0.2,0.1,0.3,0.3,0.3h2.4v4.5c0,0.2,0.1,0.3,0.3,0.3h2.3
		c0.2,0,0.3-0.1,0.3-0.3v-4.5h2.3c0.2,0,0.3-0.1,0.3-0.3v-1.7C155,23,154.9,22.9,154.7,22.9z M154.7,30.9h-16.3
		c-0.1,0-2.2-0.3-2.2-2.5v-6.5v-4.4c0-0.2-0.1-0.3-0.3-0.3h-4.6c-0.2,0-0.3,0.1-0.3,0.3v1.8c0,0.2,0.1,0.3,0.3,0.3h1.9v3.1v6.2
		c0,2.1-1.3,2.1-1.5,2.1c-0.1,0-0.1,0-0.3,0s-0.2,0.2-0.2,0.2v1.9c0,0.2,0.1,0.3,0.3,0.3s0.4,0,0.4,0c1.6,0,2.7-0.8,3.3-1.7
		c0.7,0.9,1.8,1.6,3.1,1.6l0,0h16.4c0.2,0,0.3-0.1,0.3-0.3v-1.8C155,31,154.9,30.9,154.7,30.9z"/>
	<path class="st0" d="M74.4,11.1H51.1c-0.2,0-0.3,0.1-0.3,0.3v2.1c0,0.2,0.2,0.3,0.3,0.3H69v17c0,0.2-0.2,0.3-0.3,0.3h-1.1
		c-0.2,0-0.3,0.1-0.3,0.3v1.9c0,0.2,0.1,0.3,0.3,0.3h3.2c1.1,0,1.7-0.6,1.7-1.7V13.7h1.9c0.2,0,0.3-0.1,0.3-0.3v-2.1
		C74.8,11.3,74.6,11.1,74.4,11.1z M64.7,16.1h-9.6c-1,0-1.6,0.5-1.6,1.6v8.9c0,1,0.6,1.6,1.6,1.6h9.6c1,0,1.6-0.5,1.6-1.6v-8.9
		C66.3,16.7,65.8,16.1,64.7,16.1z M62.8,25.2c0,0.2-0.1,0.3-0.3,0.3h-5.2c-0.2,0-0.3-0.1-0.3-0.3V19c0-0.2,0.1-0.3,0.3-0.3h5.2
		c0.2,0,0.3,0.1,0.3,0.3V25.2z"/>
</g>
<g>
	<path class="st1" d="M43.2,21c0,11.6-9.5,21-21.2,21S0.8,32.6,0.8,21S10.3,0,22,0S43.2,9.4,43.2,21z"/>
	<path class="st0" d="M15.2,17.3L15,17.5c0,0-1.4,1.2-2.8,1.2c-0.9,0-2-0.6-2-1.8c0-1.1,0.7-1.9,1.7-1.9c0.2,0,0.4,0,0.5,0.1
		c0.1,0,0.3,0.1,0.3,0.3v0.1c0,0.1,0.1,0.2,0.2,0.2h1.7c0.1,0,0.2-0.1,0.2-0.2v-0.7c0-1.4-1.8-1.9-2.9-1.9c-1.2,0-2.3,0.4-3.1,1.2
		c-0.7,0.7-1.1,1.7-1.1,2.8c0,2.3,1.8,4.1,4.2,4.1c2,0,3.4-1.2,3.8-1.6C15.5,18.8,15.3,18.1,15.2,17.3z"/>
	<path class="st0" d="M27.9,18.7L27.9,18.7h-0.3c-0.1,0-0.2-0.1-0.2-0.2v-6.9c0-0.8-0.4-1.3-1.3-1.3h-1.8c-0.1,0-0.2,0.1-0.2,0.2
		v1.7c0,0.1,0.1,0.2,0.2,0.2h0.4c0.1,0,0.2,0.1,0.2,0.2v6.8c0,0.9,0.4,1.3,1.3,1.3h1.7c0.1,0,0.2-0.1,0.2-0.2v-1.7
		C28.1,18.8,28,18.7,27.9,18.7z"/>
	<g>
		<path class="st0" d="M17.3,31.4c-2.4,0-4.2-1.7-4.2-4.1c0-2.3,1.8-4.1,4.2-4.1c2.4,0,4.2,1.7,4.2,4.1
			C21.6,29.7,19.8,31.4,17.3,31.4L17.3,31.4z M17.3,25.5c-1,0-1.8,0.8-1.8,1.9c0,1.1,0.8,1.9,1.8,1.9s1.8-0.8,1.8-1.9
			C19.1,26.3,18.3,25.5,17.3,25.5L17.3,25.5z"/>
		<path class="st0" d="M13.1,29.2c0-0.1-0.1-0.2-0.2-0.2h-0.2c0,0-0.1,0-0.2,0c-0.5,0-1.1-0.2-1.1-1v-2.5h1.4c0.1,0,0.2-0.1,0.2-0.2
			v-1.6c0-0.1-0.1-0.2-0.2-0.2h-1.4v-1.7c0-0.1-0.1-0.2-0.2-0.2H9.3c-0.1,0-0.2,0.1-0.2,0.2v1.7H8.4c-0.1,0-0.2,0.1-0.2,0.2v1.6
			c0,0.1,0.1,0.2,0.2,0.2H9v2.7c0,1.2,0.4,2,1.3,2.5c0.7,0.4,1.5,0.5,2,0.5c0.3,0,0.6,0,0.6-0.1l0,0c0.1,0,0.2-0.2,0.2-0.3V29.2
			L13.1,29.2z"/>
		<path class="st0" d="M30.3,29.1L30.3,29.1h-0.4c-0.1,0-0.2-0.1-0.2-0.2v-5.1c0-0.1-0.1-0.2-0.2-0.2h-2c-0.1,0-0.2,0.1-0.2,0.2v3.3
			c0,1-0.5,2.1-1.7,2.1c-0.5,0-0.8-0.2-0.8-1.1v-3.3c0-0.8-0.4-1.3-1.3-1.3h-1.7c-0.1,0-0.2,0.1-0.2,0.2v1.7c0,0.1,0.1,0.2,0.2,0.2
			h0.3c0.1,0,0.2,0.1,0.2,0.2v2.5c0,1,0.2,1.8,0.7,2.3s1.2,0.8,2.1,0.8c0.8,0,1.6-0.3,2.2-0.9c0.2,0.5,0.6,0.7,1.2,0.7h1.7
			c0.1,0,0.2-0.1,0.2-0.2v-1.7C30.6,29.2,30.4,29.1,30.3,29.1z"/>
		<path class="st0" d="M36,23.4L36,23.4c-0.1,0-0.2,0-0.4,0c-0.7,0-1.4,0.3-2,0.9c-0.1-0.5-0.6-0.8-1.2-0.8h-1.7
			c-0.1,0-0.2,0.1-0.2,0.2v1.7c0,0.1,0.1,0.2,0.2,0.2h0.6v5.3c0,0.1,0.1,0.2,0.2,0.2h1.9c0.1,0,0.2-0.1,0.2-0.2V28
			c0-0.4,0-0.7,0.1-1.1c0.3-0.9,1-1.2,1.6-1.2c0.2,0,0.3,0,0.4,0h0.1c0.1,0,0.2-0.1,0.2-0.2v-1.9C36.3,23.6,36.2,23.5,36,23.4z"/>
	</g>
	<path class="st0" d="M36,18.7h-0.6v-2.6c0-1-0.3-1.8-0.9-2.4c-0.6-0.5-1.4-0.8-2.5-0.8c-0.7,0-2.9,0.1-2.9,1.8v0.6
		c0,0.1,0.1,0.2,0.2,0.2h1.8c0.1,0,0.2-0.1,0.2-0.2v-0.1c0-0.2,0.1-0.2,0.2-0.3c0.1,0,0.2,0,0.4,0c0.8,0,0.9,0.3,1,0.8
		c-1.4,0-4.4,0.3-4.4,2.7c0,1.7,1.4,2.5,2.8,2.5c1,0,1.6-0.4,1.9-0.7c0.2,0.4,0.6,0.6,1.1,0.6H36c0.1,0,0.2-0.1,0.2-0.2v-1.7
		C36.3,18.8,36.2,18.7,36,18.7z M31.7,18.9c-0.5,0-0.7-0.3-0.7-0.6c0-0.7,1.2-0.8,2-0.8C32.9,18.3,32.4,18.9,31.7,18.9z"/>
	<path class="st2" d="M25.1,17c0,2.7-2.2,4.9-5,4.9c-2.7,0-5-2.2-5-4.9s2.2-4.9,5-4.9S25.1,14.3,25.1,17z"/>
</g>
</svg>
