<?xml version="1.0" encoding="utf-8"?>
<!-- Generator: Adobe Illustrator 24.0.0, SVG Export Plug-In . SVG Version: 6.00 Build 0)  -->
<svg version="1.1" id="圖層_1" xmlns="http://www.w3.org/2000/svg" xmlns:xlink="http://www.w3.org/1999/xlink" x="0px" y="0px"
	 viewBox="0 0 155 60.01" style="enable-background:new 0 0 155 60.01;" xml:space="preserve">
<style type="text/css">
	.st0{fill:#E60012;}
</style>
<g>
	<g>
		<g>
			<path class="st0" d="M15.06,47.71c0,0.61-0.39,0.91-1.17,0.91c-0.26,0-0.56-0.1-0.91-0.31C12.62,48.1,12.38,48,12.24,48
				c-0.4,0-0.83,0.26-1.3,0.78v6.07c0,0.9,0.64,1.35,1.93,1.35v0.78H7.14V56.2c0.73,0,1.23-0.1,1.51-0.29
				c0.28-0.21,0.42-0.56,0.42-1.04V48.7c0-0.64-0.5-0.96-1.49-0.96v-0.7c1.08-0.16,2-0.48,2.76-0.96h0.6v1.75
				c0.87-0.9,1.75-1.35,2.63-1.35C14.56,46.46,15.06,46.88,15.06,47.71z"/>
			<path class="st0" d="M20.91,56.99h-5.34V56.2c1.16,0,1.75-0.38,1.75-1.15v-5.42c0-0.19-0.03-0.34-0.08-0.44
				c-0.12-0.24-0.58-0.36-1.38-0.36v-0.65c1.3-0.12,2.22-0.69,2.76-1.69h0.57v8.62c0,0.73,0.57,1.09,1.72,1.09V56.99z M19.58,42.19
				c0,0.33-0.11,0.61-0.34,0.83c-0.24,0.24-0.53,0.36-0.86,0.36c-0.31,0-0.6-0.13-0.86-0.39c-0.24-0.24-0.36-0.52-0.36-0.83
				c0-0.35,0.11-0.63,0.34-0.83c0.24-0.21,0.53-0.31,0.86-0.31c0.33,0,0.62,0.11,0.86,0.34C19.46,41.56,19.58,41.84,19.58,42.19z"/>
			<path class="st0" d="M30.39,54.02c-0.26,1.06-0.77,1.88-1.54,2.45c-0.76,0.59-1.65,0.89-2.66,0.89c-1.48,0-2.66-0.59-3.54-1.77
				c-0.8-1.09-1.2-2.4-1.2-3.91c0-1.37,0.5-2.57,1.51-3.6c1.01-1.06,2.2-1.59,3.57-1.59c1.46,0,2.48,0.37,3.05,1.12
				c0.19,0.26,0.29,0.5,0.29,0.73c0,0.24-0.09,0.46-0.26,0.65c-0.16,0.19-0.36,0.29-0.6,0.29c-0.42,0-0.85-0.31-1.3-0.94
				c-0.43-0.61-0.89-0.91-1.35-0.91c-0.97,0-1.75,0.43-2.32,1.28c-0.49,0.75-0.73,1.68-0.73,2.79c0,1.15,0.3,2.11,0.91,2.89
				c0.66,0.83,1.53,1.25,2.61,1.25c1.22,0,2.16-0.61,2.84-1.82L30.39,54.02z"/>
			<path class="st0" d="M42.47,56.99h-5.18v-0.76c1.11,0,1.67-0.36,1.67-1.07v-4.77c0-1.72-0.76-2.58-2.29-2.58
				c-1.09,0-2.02,0.39-2.79,1.17v5.84c0,0.52,0.12,0.89,0.36,1.09c0.24,0.21,0.68,0.31,1.3,0.31v0.76h-5.18v-0.76
				c0.64,0,1.08-0.09,1.3-0.26C31.89,55.8,32,55.41,32,54.8V42.6c0-0.68-0.49-1.02-1.46-1.02v-0.68c1.08-0.16,2-0.47,2.76-0.94h0.57
				v7.97c1.01-0.97,2.24-1.46,3.7-1.46c2.17,0,3.26,1.21,3.26,3.62v5.03c0,0.73,0.55,1.09,1.64,1.09V56.99z"/>
			<path class="st0" d="M60.42,56.99h-5.11V56.2c0.63,0,1.04-0.08,1.25-0.23c0.24-0.17,0.36-0.54,0.36-1.09V50.5
				c0-1.77-0.68-2.66-2.03-2.66c-1.08,0-1.97,0.37-2.68,1.12v5.91c0,0.49,0.12,0.83,0.36,1.04c0.23,0.19,0.65,0.29,1.28,0.29v0.78
				h-5.11V56.2c0.59,0,1.01-0.1,1.25-0.29c0.24-0.17,0.36-0.51,0.36-1.02v-4.38c0-1.72-0.7-2.58-2.08-2.58
				c-1.04,0-1.89,0.38-2.55,1.15v5.78c0,0.52,0.1,0.87,0.31,1.04c0.21,0.19,0.63,0.29,1.25,0.29v0.78h-5.08V56.2
				c0.63,0,1.06-0.1,1.3-0.29c0.23-0.17,0.34-0.52,0.34-1.04v-6.15c0-0.64-0.5-0.96-1.49-0.96v-0.7c1.09-0.16,2.02-0.48,2.79-0.96
				h0.57v1.85c1.01-0.97,2.2-1.46,3.57-1.46c1.29,0,2.17,0.56,2.66,1.69c1.06-1.13,2.33-1.69,3.8-1.69c1.01,0,1.78,0.34,2.32,1.02
				c0.47,0.63,0.7,1.45,0.7,2.48v4.92c0,0.49,0.12,0.83,0.36,1.02c0.21,0.19,0.63,0.29,1.28,0.29V56.99z"/>
			<path class="st0" d="M70.97,51.96c0,1.48-0.5,2.74-1.51,3.8c-1.03,1.06-2.26,1.59-3.7,1.59c-1.63,0-2.94-0.5-3.91-1.49
				c-0.96-1.01-1.43-2.34-1.43-3.99c0-1.49,0.51-2.76,1.54-3.8c1.06-1.06,2.33-1.59,3.8-1.59c1.6,0,2.87,0.51,3.8,1.54
				C70.5,49.05,70.97,50.36,70.97,51.96z M68.93,51.85c0-1.18-0.24-2.18-0.73-3c-0.57-0.99-1.39-1.49-2.45-1.49
				c-1.03,0-1.86,0.5-2.5,1.49c-0.54,0.87-0.81,1.86-0.81,2.97c0,1.23,0.23,2.28,0.7,3.13c0.57,1.01,1.4,1.51,2.48,1.51
				c1.08,0,1.93-0.5,2.55-1.51C68.68,54.09,68.93,53.05,68.93,51.85z"/>
			<path class="st0" d="M82.92,56.99h-5.05V56.2c0.63,0,1.05-0.1,1.28-0.29c0.21-0.21,0.31-0.56,0.31-1.04v-4.82
				c0-1.49-0.78-2.24-2.34-2.24c-1.04,0-1.93,0.43-2.66,1.3v5.73c0,0.52,0.1,0.88,0.31,1.07c0.23,0.19,0.64,0.29,1.25,0.29v0.78
				h-5.05V56.2c1.08,0,1.62-0.44,1.62-1.33v-6.15c0-0.64-0.5-0.96-1.49-0.96v-0.7c1.09-0.16,2.02-0.48,2.79-0.96h0.57v1.98
				c0.99-1.06,2.21-1.59,3.65-1.59c2.15,0,3.23,1.19,3.23,3.57v4.85c0,0.38,0.03,0.65,0.1,0.81c0.14,0.33,0.63,0.5,1.49,0.5V56.99z"
				/>
			<path class="st0" d="M94.72,56.2l-3.39,1.22h-0.42l0.03-1.41c-0.96,0.87-2.08,1.3-3.36,1.3c-1.37,0-2.51-0.57-3.41-1.72
				c-0.82-1.06-1.22-2.28-1.22-3.67c0-1.51,0.54-2.8,1.62-3.86c1.09-1.06,2.4-1.59,3.91-1.59c0.92,0,1.76,0.22,2.53,0.65v-4.56
				c0-0.68-0.5-1.02-1.49-1.02v-0.68c1.09-0.16,2.02-0.47,2.79-0.94h0.57v15.81l1.85-0.1V56.2z M91.02,52.71c0-3.54-1-5.31-3-5.31
				c-0.94,0-1.7,0.48-2.29,1.43c-0.5,0.82-0.76,1.75-0.76,2.79c0,1.29,0.3,2.3,0.91,3.05c0.68,0.8,1.63,1.2,2.87,1.2
				c0.85,0,1.6-0.28,2.24-0.83c0-0.05,0.01-0.37,0.03-0.96C91.02,53.46,91.02,53.01,91.02,52.71z"/>
			<path class="st0" d="M109.56,55.92c-0.85,0.97-1.81,1.46-2.87,1.46c-1.96,0-2.94-0.98-2.94-2.94c0-1.16,0.01-3.27,0.03-6.33
				h-1.22v-0.63c1.15-0.47,2.01-1.19,2.58-2.16h0.55v1.51h3.62v1.22h-3.65v6.02c0,1.34,0.54,2.01,1.62,2.01
				c0.61,0,1.25-0.23,1.93-0.68L109.56,55.92z"/>
			<path class="st0" d="M120.36,51.96c0,1.48-0.5,2.74-1.51,3.8c-1.03,1.06-2.26,1.59-3.7,1.59c-1.63,0-2.94-0.5-3.91-1.49
				c-0.96-1.01-1.43-2.34-1.43-3.99c0-1.49,0.51-2.76,1.54-3.8c1.06-1.06,2.33-1.59,3.8-1.59c1.6,0,2.87,0.51,3.8,1.54
				C119.9,49.05,120.36,50.36,120.36,51.96z M118.33,51.85c0-1.18-0.24-2.18-0.73-3c-0.57-0.99-1.39-1.49-2.45-1.49
				c-1.03,0-1.86,0.5-2.5,1.49c-0.54,0.87-0.81,1.86-0.81,2.97c0,1.23,0.23,2.28,0.7,3.13c0.57,1.01,1.4,1.51,2.48,1.51
				c1.08,0,1.93-0.5,2.55-1.51C118.08,54.09,118.33,53.05,118.33,51.85z"/>
			<path class="st0" d="M132.37,56.02c-1.01,0.3-2.1,0.74-3.28,1.33h-0.39v-1.46c-0.89,0.97-2.08,1.46-3.57,1.46
				c-1.01,0-1.82-0.37-2.42-1.12c-0.54-0.69-0.81-1.53-0.81-2.5V48.7c0-0.47-0.13-0.77-0.39-0.91c-0.23-0.16-0.61-0.23-1.15-0.23
				v-0.73h3.65c-0.17,0.66-0.26,1.23-0.26,1.72v5.24c0,0.63,0.23,1.16,0.68,1.59c0.45,0.47,0.96,0.7,1.54,0.7
				c0.97,0,1.87-0.45,2.68-1.35v-5.76c0-0.54-0.1-0.9-0.29-1.09c-0.23-0.21-0.63-0.31-1.22-0.31v-0.73h3.52
				c-0.07,0.76-0.1,1.33-0.1,1.69v6.98l1.82-0.05V56.02z"/>
			<path class="st0" d="M140.31,47.71c0,0.61-0.39,0.91-1.17,0.91c-0.26,0-0.56-0.1-0.91-0.31c-0.35-0.21-0.59-0.31-0.73-0.31
				c-0.4,0-0.83,0.26-1.3,0.78v6.07c0,0.9,0.64,1.35,1.93,1.35v0.78h-5.73V56.2c0.73,0,1.23-0.1,1.51-0.29
				c0.28-0.21,0.42-0.56,0.42-1.04V48.7c0-0.64-0.5-0.96-1.49-0.96v-0.7c1.08-0.16,2-0.48,2.76-0.96h0.6v1.75
				c0.87-0.9,1.75-1.35,2.63-1.35C139.82,46.46,140.31,46.88,140.31,47.71z"/>
			<path class="st0" d="M147.86,54.28c0,0.96-0.47,1.73-1.41,2.32c-0.8,0.5-1.68,0.76-2.63,0.76c-1.3,0-2.39-0.27-3.26-0.81v-2.53
				h0.6c0.54,1.6,1.42,2.4,2.63,2.4c0.63,0,1.18-0.16,1.67-0.5c0.49-0.31,0.73-0.74,0.73-1.28c0-0.78-0.89-1.49-2.66-2.14
				c-1.89-0.69-2.84-1.76-2.84-3.2c0-0.94,0.4-1.66,1.2-2.16c0.68-0.43,1.5-0.65,2.48-0.65c0.75,0,1.71,0.21,2.89,0.63v2.29h-0.7
				c-0.38-1.35-1.07-2.03-2.06-2.03c-1.46,0-2.19,0.56-2.19,1.67c0,0.64,0.59,1.19,1.77,1.64c1.18,0.47,2.01,0.89,2.5,1.25
				C147.44,52.57,147.86,53.36,147.86,54.28z"/>
		</g>
	</g>
	<g>
		<path class="st0" d="M36.55,35.01H33.2v-1.64H8.22V9.02h3.35v21.15h9.22V3.19h3.21v26.98h9.21V9.02h3.35V35.01z"/>
		<path class="st0" d="M73.89,12.42h-3.13V8.04H46.68v4.45h-3.24V5.37h13.53c-0.19-0.53-0.52-1.15-0.98-1.85l3.56-0.69l1.14,2.55
			h13.19V12.42z M72.87,34.87H69.7v-1.01H47.82v1.09h-3.2V21.75h28.26V34.87z M70.17,20.04H47.12v-6.28h23.04V20.04z M57.19,26.52
			v-2.26h-9.37v2.26H57.19z M57.19,31.34v-2.46h-9.37v2.46H57.19z M69.26,12.19H48.14V9.67h21.12V12.19z M66.89,17.67v-1.53H50.47
			v1.53H66.89z M69.7,26.48v-2.22h-9.35v2.22H69.7z M69.7,31.34v-2.46h-9.35v2.46H69.7z"/>
		<path class="st0" d="M92.26,10.85h-6.82c0,1.27-0.05,2.7-0.14,4.29h6.16c-0.04,4.95-0.14,9.04-0.31,12.26
			c-0.17,3.22-0.36,5.1-0.56,5.63c-0.2,0.53-0.58,0.99-1.13,1.38C88.91,34.8,87.68,35,85.78,35c-0.4,0-0.77-0.02-1.1-0.05
			l-0.87-3.13h3.24c0.43,0,0.67-0.17,0.72-0.52c0.05-0.34,0.15-2.19,0.29-5.55c0.14-3.35,0.22-5.84,0.23-7.47h-3.1
			c-0.4,7.23-1.66,12.85-3.76,16.86l-2.55-2.46c1.2-2.2,2.05-4.86,2.55-7.98c0.5-3.12,0.76-7.74,0.8-13.85h-2.95V7.66h5.32
			c-0.43-1.45-0.91-2.75-1.46-3.9l3.03-0.98c0.75,1.71,1.32,3.33,1.73,4.88h4.36V10.85z M110.77,10.05H97.34
			c-1.2,1.71-2.54,3.32-4.01,4.84l-2.4-1.91c3.24-3.21,5.39-6.59,6.44-10.17l2.96,0.94c-0.2,0.8-0.6,1.85-1.21,3.17h11.64V10.05z
			 M109.55,13.95c-3.42,1.44-7.38,2.58-11.89,3.42v13.6c1.32-0.29,2.94-0.82,4.86-1.6l0.84,2.99c-4.34,1.56-7.3,2.45-8.87,2.69
			l-0.91-2.73c0.65-0.44,0.98-1.02,0.98-1.74V14.82c4.63-0.71,8.95-1.87,12.95-3.47L109.55,13.95z M111.33,33.13l-2.44,2.12
			c-4.48-3.9-7.11-9.55-7.91-16.93l2.95-0.68c0.29,1.92,0.56,3.35,0.84,4.29c1.21-1.44,2.23-2.9,3.06-4.38l2.85,1.53
			c-1.23,2.06-2.87,4.23-4.9,6.54C106.79,28.38,108.64,30.88,111.33,33.13z"/>
		<path class="st0" d="M148,31.56l-1.07,3.06c-1.34,0.02-5.98,0.04-13.92,0.04c-5.56,0-9.5-1.4-11.82-4.2
			c-0.94,1.69-2.09,3.27-3.46,4.75l-2.4-1.94c2.99-3.19,4.89-6.67,5.68-10.44h-4.81v-3.03c1.51-1.78,2.9-3.86,4.18-6.23h-4.67v-2.92
			h8.07v2.92c-1.2,2.21-2.49,4.32-3.86,6.32h4.22v2.94c-0.45,1.8-1,3.45-1.64,4.93c1.95,2.62,5.35,3.93,10.22,3.93
			C139.7,31.7,144.79,31.65,148,31.56z M123.48,7.79l-2.44,2.03c-1.52-1.8-3.19-3.35-5.02-4.63l2.17-2.26
			C120.18,4.22,121.95,5.84,123.48,7.79z M135.16,10.05h-5.32c0.03,1.09,0.01,2.26-0.07,3.49h5.16c0.06,3.35,0,6.48-0.18,9.4
			c-0.18,2.92-0.41,4.68-0.68,5.27c-0.28,0.59-0.76,1.05-1.45,1.38c-0.69,0.33-1.8,0.45-3.33,0.36l-0.69-2.88
			c1.33,0.08,2.12,0.06,2.38-0.08c0.26-0.14,0.44-0.34,0.54-0.61c0.11-0.27,0.22-1.38,0.33-3.34c0.11-1.96,0.19-4.18,0.22-6.66
			h-2.37c-0.17,6.07-1.47,10.57-3.92,13.5l-2.26-2.26c1.24-1.57,2.1-3.52,2.6-5.87c0.5-2.35,0.75-6.25,0.77-11.71h-2.26V7.09h4.01
			c-0.24-0.93-0.66-2.02-1.28-3.3l2.99-0.98c0.76,1.63,1.28,3.05,1.57,4.27h3.26V10.05z M147.59,22.69h-4.18v3.97
			c0,1.58-0.45,2.55-1.34,2.9c-0.9,0.36-2.47,0.51-4.71,0.46l-0.89-2.92c1.38,0.03,2.35,0.03,2.93,0c0.58-0.02,0.86-0.28,0.86-0.76
			v-3.65h-4.33v-2.92h4.33v-1.5c1.07-1.07,1.93-2.05,2.6-2.94h-5.73v-2.35c-0.38,0.43-0.74,0.76-1.09,1l-1.64-2.67
			c1.97-1.79,3.78-4.61,5.43-8.46l2.69,0.91c-0.44,1.19-0.92,2.23-1.44,3.13h6.37v2.92h-8c-0.45,0.77-1.07,1.63-1.85,2.56h8.87v2.96
			c-1,1.33-2.02,2.55-3.06,3.67v0.77h4.18V22.69z"/>
	</g>
</g>
</svg>
