<?xml version="1.0" encoding="utf-8"?>
<!-- Generator: Adobe Illustrator 16.0.0, SVG Export Plug-In . SVG Version: 6.00 Build 0)  -->
<!DOCTYPE svg PUBLIC "-//W3C//DTD SVG 1.1//EN" "http://www.w3.org/Graphics/SVG/1.1/DTD/svg11.dtd">
<svg version="1.1" id="圖層_1" xmlns="http://www.w3.org/2000/svg" xmlns:xlink="http://www.w3.org/1999/xlink" x="0px" y="0px"
	 width="60.667px" height="14.164px" viewBox="1.667 24.833 60.667 14.164" enable-background="new 1.667 24.833 60.667 14.164"
	 xml:space="preserve">
<path fill="#18B7CD" d="M5.263,37.695c2.123,0.922,4.232,1.908,6.4-0.354c-2.176,1.717-4.316,0.201-6.496-0.6
	C5.262,37.051,5.294,37.375,5.263,37.695z"/>
<path fill="#18B7CD" d="M10.532,37.289c-0.787,0.537-1.472,0.426-2.133,0.2c-0.762-0.261-1.346-0.687-2.133-0.854
	C8.1,36.604,9.201,37.882,10.532,37.289z"/>
<polygon fill="#BD8A55" points="8.625,25.534 2.007,38.773 5.711,38.773 9.073,31.878 12.386,38.773 15.245,38.773 "/>
<path fill="#595757" d="M27.371,38.635c0.555,0.241,1.107,0.499,1.672-0.092c-0.567,0.45-1.128,0.053-1.707-0.158
	C27.365,38.465,27.376,38.55,27.371,38.635z"/>
<path fill="#595757" d="M28.749,38.527c-0.164,0.115-0.376,0.136-0.559,0.055c-0.183-0.084-0.37-0.154-0.561-0.214
	c0.48,0,0.768,0.326,1.12,0.171V38.527z"/>
<polygon fill="#595757" points="28.25,35.454 26.517,38.918 27.488,38.918 28.367,37.113 29.233,38.918 29.982,38.918 "/>
<path fill="#595757" d="M18.906,38.654v-0.623c0.268,0.142,0.555,0.242,0.853,0.297c0.174,0.027,0.352-0.004,0.506-0.088
	c0.168-0.11,0.216-0.335,0.106-0.504c-0.1-0.086-0.211-0.157-0.331-0.213l-0.226-0.119c-0.24-0.117-0.457-0.275-0.64-0.468
	c-0.124-0.146-0.19-0.33-0.188-0.521c-0.008-0.258,0.107-0.504,0.309-0.664c0.236-0.17,0.524-0.256,0.815-0.24
	c0.364,0.021,0.723,0.093,1.067,0.213v0.605c-0.311-0.123-0.635-0.207-0.966-0.251c-0.136-0.009-0.27,0.034-0.374,0.122
	c-0.096,0.098-0.145,0.39,0.329,0.613l0.243,0.129c0.252,0.118,0.481,0.281,0.676,0.479c0.125,0.149,0.192,0.341,0.188,0.536
	c0.006,0.28-0.132,0.545-0.367,0.699c-0.288,0.186-0.627,0.275-0.969,0.256C19.577,38.921,19.22,38.831,18.906,38.654z"/>
<path fill="#595757" d="M32.141,38.914h-0.747v-3.413h0.932c0.803,0,1.374,0.362,1.374,0.883c0,0.583-0.495,0.909-0.657,0.909
	l1.109,1.613h-0.774l-0.928-1.417v-0.519c0.265,0.021,0.501-0.164,0.544-0.427c0-0.214-0.245-0.393-0.544-0.393h-0.307
	L32.141,38.914z"/>
<path fill="#595757" d="M23.787,38.901v-2.773h-1.218v-0.567h3.143v0.567h-1.139v2.773H23.787z"/>
<g id="travel">
	<polygon fill="#595757" points="48.365,35.449 46.846,38.885 47.684,38.885 48.403,37.154 49.275,38.885 50.109,38.885 	"/>
	<polygon fill="#595757" points="52.42,38.859 50.622,35.475 51.566,35.475 52.42,37.082 53.158,35.475 54.031,35.475 	"/>
	<path fill="#595757" d="M55.578,38.867v-3.393h2.154v0.564h-1.359v2.176h1.469v0.654L55.578,38.867z"/>
	<rect x="56.205" y="36.854" fill="#595757" width="1.472" height="0.465"/>
	<path fill="#595757" d="M59.646,38.867v-3.393h0.813v3.393H59.646z"/>
	<polygon fill="#595757" points="61.992,38.867 61.992,38.206 60.35,38.193 60.35,38.867 	"/>
	<path fill="#595757" d="M43.469,38.856h-0.746v-3.402h0.93c0.803,0,1.374,0.362,1.374,0.883c0,0.583-0.495,0.907-0.657,0.907
		l1.109,1.612h-0.774l-0.929-1.414v-0.519c0.266,0.021,0.502-0.164,0.545-0.427c0-0.224-0.246-0.393-0.545-0.393h-0.305
		L43.469,38.856z"/>
	<path fill="#595757" d="M39.324,38.939v-2.805h-1.227v-0.641h3.172v0.641h-1.15v2.805H39.324z"/>
</g>
<g id="遊">
	<path fill="#595757" d="M59.984,25.114l0.76,0.407l-0.508,0.983h1.372c0.015,0,0,0.011,0,0.023v0.604
		c0.003,0.029,0.003,0.058,0,0.087h-2.69L59.984,25.114z"/>
	<path fill="#595757" d="M55.012,31.336c0,0,0.662,0.331,1.021,0.5c0.605,0.284,1.32,0.454,2.448,0.454
		c1.093-0.01,2.184-0.087,3.267-0.23v0.792c-0.528,0.07-2.163,0.162-3.302,0.162c-0.898,0.02-1.791-0.125-2.637-0.427
		c-0.324-0.113-0.984-0.523-1.189-0.523c-0.205,0.204-0.373,0.444-0.494,0.706l-0.47-0.618c0.038-0.29,0.412-0.71,0.555-0.804
		c0.132-0.318,0.655-1.779,0.497-2.347h-0.99v-0.802h1.73C55.707,29.043,55.311,30.583,55.012,31.336z M53.86,27.356l0.724-2.242
		l0.725,2.242H53.86z M58.664,27.207h-1.636v0.612h1.425c-0.068,2.752-0.106,3.121-0.128,3.336c0.007,0.325-0.25,0.595-0.575,0.602
		c-0.014,0-0.027,0-0.041,0c-0.096,0-0.909,0-0.909,0v-0.655h0.546c0,0,0.186-0.011,0.23-0.079s0.117-2.065,0.127-2.473h-0.67
		v-0.081c-0.027,1.029-0.282,2.039-0.748,2.957l-0.674-0.254c0.467-0.922,0.71-1.941,0.709-2.974v-0.992H55.64v-0.689h1.122
		l-0.467-1.404h0.879l0.486,1.404h1.006L58.664,27.207z M58.979,29.813v-0.604h0.755l0.89-0.828H58.98v-0.698l2.715,0.013v0.676
		l-0.996,0.828h0.996v0.604L58.979,29.813z"/>
	<path fill="#595757" d="M60.866,29.63v1.408c0,0.32-0.05,0.567-0.317,0.663c-0.27,0.096-0.996,0.054-1.57,0.054v-0.664
		c0.426,0,0.823,0.023,0.945,0.013c0.121-0.011,0.155-0.028,0.155-0.126V29.63H60.866z"/>
</g>
<g id="星">
	<rect x="34.81" y="30.775" fill="#595757" width="3.128" height="0.693"/>
	<path fill="#595757" d="M35.057,32.26h3.499v0.745h-7.981V32.26h3.71v-0.792H31.36v-0.693h2.925v-0.749h-2.432
		c-0.279,0.251-0.571,0.487-0.875,0.708l-0.499-0.619c0.601-0.461,1.144-0.992,1.619-1.581l0.964,0.015
		c-0.084,0.246-0.602,0.772-0.602,0.772h1.824v-0.99h0.771v0.99h2.881v0.704h-2.881V32.26z M38.044,28.621h-6.72V25.31h6.72V28.621z
		 M37.227,26.027h-5.154v2.018h5.154V26.027z"/>
	<rect x="31.876" y="26.663" fill="#595757" width="4.778" height="0.674"/>
</g>
<g id="旅">
	<polygon fill="#595757" points="50.024,30.718 48.557,31.179 48.333,30.43 49.82,29.993 	"/>
	<path fill="#595757" d="M48.51,29.353c0.074,1.299,0.477,2.532,1.248,3.438l-0.619,0.381c-0.746-0.922-1.279-1.921-1.382-3.819
		H48.51z"/>
	<path fill="#595757" d="M45.416,27.889c0,0,0.012,0.427,0,0.529c-0.074,3.108-0.15,3.934-0.379,4.267
		c-0.182,0.187-0.432,0.292-0.691,0.294c-0.294,0.024-0.59,0.024-0.883,0v-0.746c0,0,0.456,0.013,0.6,0.013
		c0.106,0.013,0.211-0.039,0.266-0.132c0.141-0.213,0.229-0.881,0.295-3.476H43.77c0,1.954-0.369,2.987-1.054,4.034l-0.722-0.514
		c0.879-1.359,0.916-2.468,0.916-3.84v-1.28h-0.854v-0.777h3.5v0.777h-1.774v0.853L45.416,27.889z M43.611,26.566l-0.348-1.442
		h0.926l0.373,1.442H43.611z M46.14,27.042l1.067-1.982l0.853,0.23l-0.503,0.975h2.237v0.776H46.14z M47.051,28.689v4.341h-0.854
		v-5.141h3.588v0.8H47.051z"/>
</g>
<g id="燦">
	<polygon fill="#595757" points="23.994,30.982 21.745,32.895 21.18,32.439 23.098,30.835 	"/>
	<path fill="#595757" d="M18.773,28.621v-2.299h0.723v2.299H18.773z M20.48,27.947c0,0,0.011,1.09-0.041,1.689l0.983,1.624
		l-0.525,0.625l-0.719-1.199c-0.087,0.375-0.386,1.387-0.977,2.052l-0.439-0.668c0.427-0.55,0.964-2.02,0.964-3.721v-3.038h0.753
		V27.947z M21.585,26.321l-1.233,2.227l0.041-1.385l0.452-0.853L21.585,26.321z M24.228,26.321
		c-0.145,1.775-1.643,2.899-2.444,3.276l-0.361-0.521c0.433-0.196,0.822-0.478,1.144-0.828l-0.593-0.742l-0.254,0.48L21.12,27.65
		l0.994-1.829l0.574,0.341l-0.085,0.154h0.265V25.08h0.621v0.226h0.685v0.655h-0.685v0.356L24.228,26.321z M24.441,33.08h-0.717
		v-2.134h-2.266v-0.653h1.099l-0.453-0.48l0.625-0.339l0.751,0.819h0.246v-1.252h0.717L24.441,33.08z M22.385,26.959l0.616,0.74
		c0,0,0.408-0.567,0.408-0.74H22.385z"/>
	<path fill="#595757" d="M27.04,28.173c-1.22-0.51-1.764-1.856-1.764-1.856h-0.832c0,0,0.659,2.003,2.596,2.601
		C27.04,28.917,27.046,28.173,27.04,28.173z"/>
	<path fill="#595757" d="M26.752,25.314v0.64c0,0.657-0.371,1.877-2.133,3.087l-0.569-0.488c1.548-0.907,1.939-2.157,1.92-2.599
		h-1.477v-0.64H26.752z"/>
	<polygon fill="#595757" points="24.693,31.366 26.59,32.953 27.062,32.374 25.777,31.366 	"/>
	<polygon fill="#595757" points="25.963,29.225 26.594,29.589 25.965,30.298 27.083,30.298 27.083,30.953 24.557,30.948 	"/>
</g>
</svg>
