
<svg xmlns="http://www.w3.org/2000/svg" version="1.1" xmlns:xlink="http://www.w3.org/1999/xlink" preserveAspectRatio="none" x="0px" y="0px" width="180px" height="40px" viewBox="0 0 180 40">
<defs>
<g id="Layer0_0_MEMBER_0_FILL">
<path fill="#9CBE20" stroke="none" d="
M 296.35 435.5
Q 296.9 435 296.95 434.2 297.05 433.4 296.5 432.85 296 432.25 295.2 432.2 294.4 432.15 293.8 432.65 293.25 433.15 293.15 433.95 293.1 434.75 293.65 435.35 294.15 435.9 294.95 435.95 295.75 436.05 296.35 435.5 Z"/>
</g>

<g id="Layer0_0_MEMBER_1_FILL">
<path fill="#F8CA00" stroke="none" d="
M 298.95 410.1
Q 293.75 406.05 287.55 403.85 278.45 400.65 268.1 401.4 257.65 402.15 249.25 406.75 246 408.5 245.05 409.2 242.85 410.8 242.05 412.85 241.05 415.4 243.1 417.65 245 419.7 247.75 420.05 248.75 420.2 251.35 420.25 253.55 420.25 254.9 420.6 259.15 421.6 262.3 423.8 265.9 426.3 267.45 429.95 269.75 435.15 270.2 436 272 439.3 274.5 440.95 277 442.6 279.8 442.05 282.7 441.45 283.9 438.8 287.25 431.25 292.15 429.45 296.1 427.95 299.65 428.8 302 429.3 303 430.1 304.85 431.5 307.25 432.1 310.25 432.85 311.55 431.2
L 311.6 431.1
Q 312.4 430.05 311.5 427.45 310.3 424.65 309.95 423.8 309 421.7 307.7 419.75 304.2 414.25 298.95 410.1 Z"/>
</g>

<g id="Layer0_0_MEMBER_2_FILL">
<path fill="#9CBE20" stroke="none" d="
M 306.3 438
Q 301.8 440.3 299.35 445.1 294.3 455 291.95 458.6 287.15 465.85 281.4 469.6 274.85 473.85 266.95 474.7 259.5 475.45 251.6 473.15
L 249.9 472.6
Q 244.15 470.5 240.45 471.3 238.35 471.75 237.15 472.95 235.25 474.85 235.65 477.55 236.1 480.25 239.35 481.9 245.1 485 255.15 483.45 255.5 483.4 256.85 483.15 258.1 483 258.4 483.55 258.55 483.8 258.35 484.1 258.05 484.5 257.35 484.95 256.95 485.2 256.2 485.65 254.8 486.65 254.5 487.65 254.05 489.55 255.5 491 256.8 492.15 258.75 492.3 265.25 492.9 273.2 486.35 274 485.7 275.25 484.45 276.7 483.05 277.25 482.55 277.85 482 278.2 481.7 278.8 481.2 279.25 481.3 279.8 481.45 279.8 482 279.8 482.4 279.5 482.9 277.4 486.2 276.95 487.6 276 490.65 278.6 492 279.75 492.6 281.25 492.45 282.65 492.3 283.9 491.6 286.15 490.4 287.8 487.75 288.5 486.6 290.35 482.7
L 294.2 474.35
Q 294.95 472.25 295.65 470.9 296.95 468.4 298.15 468.85 299 469.15 297.9 471.45 297.6 472.15 296.4 474.2 294.85 477.05 295.9 479.4 297.05 481.9 300.35 481.3 302.15 481.05 304.1 479.45 307.1 476.95 309.55 471.95 310.2 470.6 313.15 463.25 317.75 451.7 316.35 443.85 315.95 441.45 314.85 439.85 311.6 435.25 306.3 438 Z"/>
</g>

<g id="Layer0_0_MEMBER_3_FILL">
<path fill="#1090CE" stroke="none" d="
M 248.15 432.1
Q 247.3 430.35 245.95 429 242.6 425.55 238.9 424.55 234.7 423.4 231.45 427.5 229.1 430.4 227.55 435.4 226.55 438.55 226.25 442.7 226.05 445.7 226.2 449.25 226.45 454.25 228.1 458 230.3 462.95 234.45 463.75 235.3 463.9 236.15 463.7 236.35 463.65 237.7 463.2 240.15 462.45 243.2 462.1
L 243.45 462.1
Q 244.8 462 247 462.3 250.15 462.75 250.55 462.8 256.55 463.4 259.5 460.9 260.65 459.85 261 459.35 261.7 458.3 261.35 457.15 261.1 456.15 260.15 455.15 259.7 454.7 258.4 453.55 255.9 451.45 254.5 448.95 252.75 445.9 251.25 441.1
L 249.55 435.75
Q 248.75 433.3 248.15 432.1 Z"/>
</g>

<g id="Layer0_0_MEMBER_4_FILL">
<path fill="#525252" stroke="none" d="
M 424.2 454.05
L 418.7 474.9 425.3 476.55 430.8 456 424.2 454.05 Z"/>
</g>

<g id="Layer0_0_MEMBER_5_FILL">
<path fill="#525252" stroke="none" d="
M 422.3 437.35
L 419 443.35 427.75 450.5 431.05 444.45 422.3 437.35 Z"/>
</g>

<g id="Layer0_0_MEMBER_6_FILL">
<path fill="#525252" stroke="none" d="
M 423.4 420.9
L 420.35 426.95 428.85 433.8 432.15 427.75 423.4 420.9 Z"/>
</g>

<g id="Layer0_0_MEMBER_7_FILL">
<path fill="#525252" stroke="none" d="
M 449.5 443.65
L 445.65 444.8 445.65 429.15 451.15 429.15 451.15 423.4 433.6 423.4 433.6 429.15 439.1 429.15 439.1 446.8 433.35 448.6 435.85 453.8 452 448.85 449.5 443.65 Z"/>
</g>

<g id="Layer0_0_MEMBER_8_FILL">
<path fill="#525252" stroke="none" d="
M 463.55 458.45
L 463.55 467.9 469.3 467.9 469.3 458.45 463.55 458.45 Z"/>
</g>

<g id="Layer0_0_MEMBER_9_FILL">
<path fill="#525252" stroke="none" d="
M 460.15 467.9
L 460.15 458.45 454.35 458.45 454.35 467.9 460.15 467.9 Z"/>
</g>

<g id="Layer0_0_MEMBER_10_FILL">
<path fill="#525252" stroke="none" d="
M 445.25 458.45
L 445.25 472.2 451 472.2 451 458.45 445.25 458.45 Z"/>
</g>

<g id="Layer0_0_MEMBER_11_FILL">
<path fill="#525252" stroke="none" d="
M 436.1 458.45
L 436.1 472.2 441.85 472.2 441.85 458.45 436.1 458.45 Z"/>
</g>

<g id="Layer0_0_MEMBER_12_FILL">
<path fill="#525252" stroke="none" d="
M 460.5 423
L 453.8 423 453.8 454.75 471.95 454.65
Q 472.45 454.65 472.85 455.05 473.2 455.4 473.2 455.9
L 473.2 469.6
Q 473.2 470.15 472.85 470.5 472.5 470.85 471.95 470.85
L 457.05 470.85 457.05 476.55 471.95 476.55
Q 474.85 476.55 476.85 474.5 478.9 472.5 478.9 469.6
L 478.9 455.9
Q 478.9 453.05 476.85 451 474.85 448.95 471.95 448.95
L 460.65 448.95 460.65 444.5 470.75 444.5
Q 473.55 444.5 475.55 442.5 477.55 440.55 477.55 437.75
L 477.55 429.75
Q 477.55 426.95 475.55 425 473.55 423 470.75 423
L 468.35 423 469.7 420.35 462.55 419 460.5 423
M 460.65 431.15
L 460.65 428.3 470.75 428.3
Q 471.35 428.3 471.8 428.75 472.2 429.15 472.2 429.75
L 472.2 431.15 460.65 431.15
M 460.65 439.2
L 460.65 436.35 472.2 436.35 472.2 437.75
Q 472.2 438.35 471.8 438.8 471.35 439.2 470.75 439.2
L 460.65 439.2 Z"/>
</g>

<g id="Layer0_0_MEMBER_13_FILL">
<path fill="#525252" stroke="none" d="
M 407.4 469.95
Q 407.4 467.15 405.4 465.2 403.4 463.2 400.6 463.2
L 358.75 463.2
Q 356 463.2 354 465.2 352 467.2 352 469.95 352 472.75 354 474.75 355.95 476.7 358.75 476.7
L 400.6 476.7
Q 403.4 476.7 405.4 474.75 407.4 472.75 407.4 469.95
M 357.75 468.95
Q 358.15 468.5 358.75 468.5
L 400.6 468.5
Q 401.2 468.5 401.65 468.95 402.1 469.35 402.1 469.95 402.1 470.55 401.65 471 401.2 471.4 400.6 471.4
L 358.75 471.4
Q 358.15 471.4 357.75 471 357.3 470.55 357.3 469.95 357.3 469.35 357.75 468.95
M 409.3 460.1
L 409.3 455.15 395 455.15 396.05 451.75 400.15 451.75
Q 402.95 451.75 404.95 449.8 406.9 447.8 406.9 445 406.9 442.2 404.95 440.25 402.95 438.25 400.15 438.25
L 359.2 438.25
Q 356.45 438.25 354.45 440.25 352.45 442.25 352.45 445 352.45 447.8 354.45 449.8 356.4 451.75 359.2 451.75
L 363.35 451.75 364.4 455.15 350.1 455.15 350.1 460.1 409.3 460.1
M 401.2 444
Q 401.6 444.45 401.6 445 401.6 445.6 401.2 446.05 400.75 446.45 400.15 446.45
L 359.2 446.45
Q 358.6 446.45 358.2 446.05 357.75 445.6 357.75 445 357.75 444.45 358.2 444 358.6 443.55 359.2 443.55
L 400.15 443.55
Q 400.75 443.55 401.2 444
M 389.35 451.75
L 388.3 455.15 371.05 455.15 370.05 451.75 389.35 451.75
M 408.65 427.4
L 408.65 422.1 382.6 422.1 382.6 419.35 375.65 419.35 375.65 422.1 350.15 422.1 350.15 427.4 375.65 427.4 375.65 429.75 352.1 429.75 352.1 435.05 407.3 435.05 407.3 429.75 382.6 429.75 382.6 427.4 408.65 427.4 Z"/>
</g>

<g id="Layer0_0_MEMBER_14_FILL">
<path fill="#525252" stroke="none" d="
M 566.9 465.95
L 556.9 473 562.8 477 572.75 469.95 566.9 465.95
M 580.6 466.4
L 575.4 469.95 584.7 476.55 589.9 472.95 580.6 466.4
M 586.35 420.1
L 579.8 420.1 579.8 423.65 568 423.65 568 420.1 561.15 420.1 561.15 423.65 558.15 423.65 558.15 429.65 561.15 429.65 561.15 458.45 557.6 458.45 557.6 464.2 590.2 464.2 590.2 458.45 586.35 458.45 586.35 429.65 589.65 429.65 589.65 423.65 586.35 423.65 586.35 420.1
M 568 441.2
L 579.8 441.2 579.8 446.95 568 446.95 568 441.2
M 579.8 429.65
L 579.8 435.4 568 435.4 568 429.65 579.8 429.65
M 579.8 452.95
L 579.8 458.45 568 458.45 568 452.95 579.8 452.95
M 613.45 422.35
Q 611.2 420.1 608 420.1
L 593.75 420.1 593.75 476.55 599.85 476.55 599.85 460 609.95 460 609.95 470.5 606.65 470.5 606.65 476.55 615.7 476.55 615.7 427.75
Q 615.7 424.55 613.45 422.35
M 609.65 427.2
L 609.65 436.35 599.85 436.35 599.85 427.2 609.65 427.2
M 609.1 443.45
Q 609.65 443.45 609.95 443.4
L 609.95 452.85 599.85 452.85 599.85 443.45 609.1 443.45 Z"/>
</g>

<g id="Layer0_0_MEMBER_15_FILL">
<path fill="#525252" stroke="none" d="
M 497.55 450.3
L 490.7 450.3 490.7 476.55 497.55 476.55 497.55 450.3
M 495.35 419.8
L 486.8 444.15 492.8 448.15 501.1 423.65 495.35 419.8
M 522 422.85
Q 520 420.85 517.2 420.85
L 504.4 420.9 504.4 476.55 510.95 476.55 510.95 470.25 522.5 470.25 522.5 464.2 510.95 464.2 510.95 455.7 522.5 455.7 522.5 449.7 510.95 449.7 510.95 441.1 511.15 441.15 517.2 441.15
Q 520 441.15 522 439.15 523.95 437.15 523.95 434.35
L 523.95 427.6
Q 523.95 424.8 522 422.85
M 518.25 426.6
Q 518.65 427 518.65 427.6
L 518.65 434.35
Q 518.65 434.95 518.25 435.4 517.8 435.8 517.2 435.8
L 510.95 435.8 511 426.2 511.15 426.15 517.2 426.15
Q 517.8 426.15 518.25 426.6
M 540 445.25
L 526.95 445.25 526.95 451.7 540 451.7
Q 540.35 451.7 540.6 451.95 540.85 452.25 540.85 452.6
L 540.85 455.55
Q 540.85 456.4 540.6 456.75
L 540.35 457.15 537.45 460.3 533.25 455.55 526.5 458.3 532.75 465.4 524.55 474.25 530.85 477.25 537.1 470.35 542.95 477 549.4 473.9 541.75 465.2 545.85 460.75 546.15 460.35
Q 547.3 458.5 547.3 456.4
L 547.3 452.6
Q 547.3 449.55 545.15 447.4 543 445.25 540 445.25
M 540.45 420.3
L 527.45 420.3 527.45 426.7 540.45 426.7
Q 540.8 426.7 541.05 427 541.3 427.25 541.3 427.6
L 541.3 434.35
Q 541.3 434.7 541.05 435 540.8 435.25 540.45 435.25
L 527.45 435.25 527.45 441.7 540.45 441.7
Q 543.5 441.7 545.6 439.55 547.75 437.4 547.75 434.35
L 547.75 427.6
Q 547.75 424.55 545.6 422.45 543.5 420.3 540.45 420.3 Z"/>
</g>
</defs>

<g transform="matrix( 0.3945465087890625, 0, 0, 0.3945159912109375, -76.05,-156.3) ">
<use xlink:href="#Layer0_0_MEMBER_0_FILL"/>
</g>

<g transform="matrix( 0.3945465087890625, 0, 0, 0.3945159912109375, -76.05,-156.3) ">
<use xlink:href="#Layer0_0_MEMBER_1_FILL"/>
</g>

<g transform="matrix( 0.3945465087890625, 0, 0, 0.3945159912109375, -76.05,-156.3) ">
<use xlink:href="#Layer0_0_MEMBER_2_FILL"/>
</g>

<g transform="matrix( 0.3945465087890625, 0, 0, 0.3945159912109375, -76.05,-156.3) ">
<use xlink:href="#Layer0_0_MEMBER_3_FILL"/>
</g>

<g transform="matrix( 0.3945465087890625, 0, 0, 0.3945159912109375, -76.05,-156.3) ">
<use xlink:href="#Layer0_0_MEMBER_4_FILL"/>
</g>

<g transform="matrix( 0.3945465087890625, 0, 0, 0.3945159912109375, -76.05,-156.3) ">
<use xlink:href="#Layer0_0_MEMBER_5_FILL"/>
</g>

<g transform="matrix( 0.3945465087890625, 0, 0, 0.3945159912109375, -76.05,-156.3) ">
<use xlink:href="#Layer0_0_MEMBER_6_FILL"/>
</g>

<g transform="matrix( 0.3945465087890625, 0, 0, 0.3945159912109375, -76.05,-156.3) ">
<use xlink:href="#Layer0_0_MEMBER_7_FILL"/>
</g>

<g transform="matrix( 0.3945465087890625, 0, 0, 0.3945159912109375, -76.05,-156.3) ">
<use xlink:href="#Layer0_0_MEMBER_8_FILL"/>
</g>

<g transform="matrix( 0.3945465087890625, 0, 0, 0.3945159912109375, -76.05,-156.3) ">
<use xlink:href="#Layer0_0_MEMBER_9_FILL"/>
</g>

<g transform="matrix( 0.3945465087890625, 0, 0, 0.3945159912109375, -76.05,-156.3) ">
<use xlink:href="#Layer0_0_MEMBER_10_FILL"/>
</g>

<g transform="matrix( 0.3945465087890625, 0, 0, 0.3945159912109375, -76.05,-156.3) ">
<use xlink:href="#Layer0_0_MEMBER_11_FILL"/>
</g>

<g transform="matrix( 0.3945465087890625, 0, 0, 0.3945159912109375, -76.05,-156.3) ">
<use xlink:href="#Layer0_0_MEMBER_12_FILL"/>
</g>

<g transform="matrix( 0.3945465087890625, 0, 0, 0.3945159912109375, -76.05,-156.3) ">
<use xlink:href="#Layer0_0_MEMBER_13_FILL"/>
</g>

<g transform="matrix( 0.3945465087890625, 0, 0, 0.3945159912109375, -76.05,-156.3) ">
<use xlink:href="#Layer0_0_MEMBER_14_FILL"/>
</g>

<g transform="matrix( 0.3945465087890625, 0, 0, 0.3945159912109375, -76.05,-156.3) ">
<use xlink:href="#Layer0_0_MEMBER_15_FILL"/>
</g>
</svg>
